<svg xmlns="http://www.w3.org/2000/svg" xmlns:xlink="http://www.w3.org/1999/xlink"><symbol fill="none" viewBox="0 0 55 54" id="Frame" xmlns="http://www.w3.org/2000/svg"><g clip-path="url(#aclip0_1_815)" stroke="#EEE2D9" stroke-miterlimit="10"><path d="M54.009 1.066H.429v52.671c29.576 0 53.58-23.596 53.58-52.67z"/><path d="M51.276 3.7C49.883 29.193 29.04 49.682 3.108 51.051V3.701h48.168z"/><path d="M48.329 6.333c-1.233 10.64-6.055 20.594-13.824 28.232A48.321 48.321 0 015.787 48.154V6.333H48.33z"/><path d="M45.276 8.967A45 45 0 0132.63 32.72C26.04 39.2 17.52 43.52 8.467 45.151V8.968h36.809z"/><path d="M41.9 11.6c-1.875 7.217-5.787 13.958-11.198 19.225-5.358 5.268-12.216 9.112-19.557 11.009V11.6H41.9z"/><path d="M38.31 14.234c-2.036 5.53-5.251 10.587-9.484 14.748-4.232 4.161-9.376 7.321-15.002 9.323v-24.07H38.31z"/><path d="M34.291 16.867c-1.875 3.793-4.34 7.321-7.34 10.271-3 2.95-6.537 5.425-10.448 7.216V16.867H34.29z"/><path d="M29.738 19.501c-1.34 2.107-2.947 4.003-4.715 5.741a35.07 35.07 0 01-5.84 4.635V19.501h10.555z"/><path d="M24.38 22.135c-.375.421-.804.842-1.233 1.264-.428.421-.857.79-1.286 1.211v-2.475h2.518v0z"/></g><defs><clipPath id="aclip0_1_815"><path fill="#fff" transform="translate(.162 .803)" d="M0 0h54.115v53.197H0z"/></clipPath></defs></symbol><symbol fill="none" viewBox="0 0 6 4" id="ar" xmlns="http://www.w3.org/2000/svg"><path d="M.132 3.01c.085.074.2.115.319.115.12 0 .234-.041.319-.114l2.233-1.94 2.233 1.94a.49.49 0 00.317.11.487.487 0 00.315-.115A.368.368 0 006 2.732a.366.366 0 00-.127-.276L3.322.24a.488.488 0 00-.32-.115.488.488 0 00-.318.115L.132 2.456A.368.368 0 000 2.734c0 .103.048.203.132.277z" fill="#0042A4"/></symbol><symbol fill="none" viewBox="0 0 16 31" id="arr" xmlns="http://www.w3.org/2000/svg"><path d="M15.273 30.803L16 30.08 1.454 15.645 16 1.209l-.727-.722L0 15.645l15.273 15.158z" fill="#000"/></symbol><symbol viewBox="0 0 32 32" id="arrow-up" xmlns="http://www.w3.org/2000/svg"><path d="M.256 23.481a1.063 1.063 0 001.813.75l14.119-14.119 13.913 13.912c.413.413 1.087.413 1.5 0s.413-1.087 0-1.5L16.938 7.855a1.065 1.065 0 00-1.5 0L.569 22.724a1.051 1.051 0 00-.313.756z"/></symbol><symbol fill="none" viewBox="0 0 8 8" id="arrow45" xmlns="http://www.w3.org/2000/svg"><path clip-rule="evenodd" d="M7.02.5a.292.292 0 01.292.292v3.5a.292.292 0 01-.583 0V1.495L.811 7.414a.292.292 0 11-.413-.413l5.919-5.918H3.52a.292.292 0 110-.583h3.5z"/></symbol><symbol fill="none" viewBox="0 0 36 19" id="basket" xmlns="http://www.w3.org/2000/svg"><path d="M15.35 13.977a2.077 2.077 0 100 4.153 2.077 2.077 0 000-4.153zm0 2.769a.693.693 0 110-1.386.693.693 0 010 1.386z" fill="#fff"/><path d="M11.197 13.977H5.658a.692.692 0 110-1.385h11.077a.692.692 0 00.683-.578l1.385-8.308a.691.691 0 00-.683-.806H7.043a.692.692 0 000 1.384h10.26l-1.154 6.923H7.523L3.538.58a.693.693 0 00-.649-.45H1.505a.692.692 0 100 1.385h.904l3.635 9.693h-.386a2.07 2.07 0 00-.539 4.072 2.08 2.08 0 103.873.081h2.205a.692.692 0 100-1.384zm-3.462 2.077a.692.692 0 11-1.384 0 .692.692 0 011.384 0zM33.838 9.973V8.867h-2.506v-2.73h-1.218v2.73h-2.52v1.106h2.52v2.842h1.218V9.973h2.506z" fill="#fff"/></symbol><symbol fill="none" viewBox="0 0 26 27" id="basket1" xmlns="http://www.w3.org/2000/svg"><path d="M21 20.85a3 3 0 100 5.998 3 3 0 000-5.999zm0 4a1 1 0 110-2 1 1 0 010 2z" fill="#000"/><path d="M15 20.85H7a1 1 0 010-2h16a1 1 0 00.986-.836l2-12A1.001 1.001 0 0025 4.849H9a1 1 0 100 2h14.82l-1.667 10H9.693L3.937 1.5A1 1 0 003 .848H1a1 1 0 000 2h1.307l5.25 14H7a2.99 2.99 0 00-.78 5.883 3.005 3.005 0 105.596.117H15a1 1 0 000-2zm-5 3a1 1 0 11-2 0 1 1 0 012 0z" fill="#000"/></symbol><symbol fill="none" viewBox="0 0 28 28" id="call" xmlns="http://www.w3.org/2000/svg"><g clip-path="url(#hclip0_1_1617)"><path d="M14 .875a13.125 13.125 0 100 26.25 13.125 13.125 0 000-26.25zm.563 8.062a4.506 4.506 0 014.5 4.5h-1.125a3.378 3.378 0 00-3.375-3.374V8.937zm3.644 12.938c-.034 0-3.413-.058-7.757-4.325-4.267-4.343-4.325-7.723-4.325-7.757 0-.42 2.625-3.668 3.205-3.668.201 0 .358.136.53.341.413.492 2.239 3.374 2.155 3.855-.04.225-.232.397-.782.858-.27.213-.524.447-.758.7.112.463.279.911.496 1.335a8.255 8.255 0 003.816 3.815 6.04 6.04 0 001.336.495c.253-.233.487-.486.7-.757.46-.55.632-.741.858-.782.48-.087 3.363 1.742 3.854 2.155.205.175.342.329.342.53-.002.58-3.25 3.205-3.67 3.205zm2.543-8.438a6.194 6.194 0 00-6.187-6.187V6.125a7.321 7.321 0 017.312 7.312H20.75z" fill="#000"/></g><defs><clipPath id="hclip0_1_1617"><path fill="#fff" d="M0 0h28v28H0z"/></clipPath></defs></symbol><symbol fill="none" viewBox="0 0 14 14" id="check" xmlns="http://www.w3.org/2000/svg"><path d="M4.6 7.3l1.8 1.8 3-3.6" stroke="#fff" stroke-linecap="round" stroke-linejoin="round"/><path d="M7 13A6 6 0 107 1a6 6 0 000 12z" stroke="#fff"/></symbol><symbol fill="none" viewBox="0 0 217 216" id="decor" xmlns="http://www.w3.org/2000/svg"><g clip-path="url(#jclip0_4_3928)" stroke="#8D6A4F" stroke-miterlimit="10"><path d="M215.874 214.547V1.676H2.013c0 117.504 95.81 212.871 213.861 212.871z"/><path d="M205.181 203.69C101.672 198.156 18.48 115.349 12.919 12.32h192.262v191.37z"/><path d="M194.488 191.982c-43.2-4.896-83.62-24.054-114.63-54.92-31.01-30.867-50.471-71.1-55.176-114.1h169.806v169.02z"/><path d="M183.795 179.849c-36.143-6.599-70.147-24.055-96.452-50.238-26.305-26.183-43.841-60.03-50.47-96.005h146.922V179.85z"/><path d="M173.102 166.438c-29.299-7.451-56.673-22.99-78.06-44.49-21.386-21.287-36.998-48.535-44.697-77.698h122.757v122.188z"/><path d="M162.409 152.175c-22.456-8.089-42.986-20.861-59.882-37.678C85.632 97.68 72.801 77.245 64.674 54.893h97.735v97.282z"/><path d="M151.716 136.21c-15.398-7.45-29.727-17.242-41.703-29.163-11.977-11.921-22.028-25.97-29.3-41.51h71.003v70.673z"/><path d="M141.022 118.116c-8.554-5.322-16.253-11.708-23.31-18.733-7.058-7.024-13.474-14.9-18.82-23.203h42.13v41.936z"/><path d="M130.33 96.829c-1.711-1.49-3.422-3.193-5.133-4.896-1.711-1.703-3.208-3.406-4.919-5.109h10.052v10.005z"/></g><defs><clipPath id="jclip0_4_3928"><path fill="#fff" transform="rotate(90 108.166 108.777)" d="M0 0h215v216H0z"/></clipPath></defs></symbol><symbol fill="none" viewBox="0 0 185 185" id="decor-card" xmlns="http://www.w3.org/2000/svg"><g clip-path="url(#kclip0_2_1758)" stroke="#ECEAF4" stroke-miterlimit="10"><path d="M183.177 1.556H.999v182.178c100.562 0 182.178-81.616 182.178-182.178z"/><path d="M173.886 10.665c-4.737 88.174-75.604 159.041-163.778 163.778V10.665h163.778z"/><path d="M163.866 19.774c-4.19 36.8-20.586 71.231-47.002 97.647-26.416 26.416-60.847 42.994-97.647 47.002V19.773h144.649z"/><path d="M153.482 28.883c-5.647 30.788-20.586 59.754-42.994 82.162-22.408 22.408-51.374 37.346-82.162 42.994V28.883h125.156z"/><path d="M142.005 37.992c-6.376 24.958-19.675 48.277-38.075 66.495-18.218 18.217-41.537 31.516-66.495 38.075V37.992h104.57z"/><path d="M129.799 47.1c-6.923 19.13-17.854 36.618-32.246 51.01-14.392 14.392-31.88 25.323-51.01 32.246V47.1H129.8z"/><path d="M116.136 56.21c-6.377 13.116-14.757 25.322-24.959 35.524-10.202 10.202-22.226 18.764-35.525 24.958V56.209h60.484z"/><path d="M100.65 65.318c-4.554 7.287-10.02 13.846-16.031 19.858-6.012 6.011-12.753 11.477-19.858 16.031V65.318h35.889z"/><path d="M82.433 74.427c-1.276 1.457-2.733 2.915-4.19 4.372-1.458 1.458-2.915 2.733-4.373 4.19v-8.562h8.563v0z"/></g><defs><clipPath id="kclip0_2_1758"><path fill="#fff" transform="translate(.088 .645)" d="M0 0h184v184H0z"/></clipPath></defs></symbol><symbol fill="none" viewBox="0 0 375 224" id="decor2" xmlns="http://www.w3.org/2000/svg"><g opacity=".6" fill="#E8E8E8" stroke="#F9F9F9" stroke-width="1.5"><path d="M753.384 396.509c-12.124 1.814-24.588 2.808-36.882 4.095-11.191 1.17-23.909 2.165-34.592 4.856-11.786 2.984-23.656 4.739-35.186 8.483-9.157 2.984-18.06 6.027-26.538 9.888-16.618 7.606-30.947 17.552-44.513 27.556-26.114 19.248-50.193 40.544-83.09 54.527-19.755 8.366-42.054 11.994-63.59 17.376-11.7 2.925-25.266 3.978-37.475 5.968a4508.636 4508.636 0 01-41.206 6.494c-39.171 5.967-76.646 15.738-108.95 32.353-33.151 17.025-59.435 40.544-73 67.574-7.801 15.445-10.684 32.646-6.614 48.793 3.9 15.563 12.464 30.423 21.96 44.699 8.818 13.28 18.737 26.21 27.725 39.432a225.38 225.38 0 0111.87 19.541c3.391 6.202 5.257 12.754 8.224 19.014h-3.137c-2.798-6.084-4.748-12.403-7.97-18.487-4.324-8.25-9.581-16.265-15.092-24.222-9.835-14.334-20.688-28.375-29.76-42.943-8.478-13.631-15.516-28.082-17.89-42.884-2.543-15.738 1.866-32.003 9.581-46.804 13.396-25.626 39.426-48.033 70.712-64.473 33.914-17.845 73.255-27.732 114.63-34.051 12.718-1.93 25.606-3.919 38.239-6.026 13.311-2.164 27.64-3.51 40.443-6.728 11.954-2.983 24.164-5.265 36.118-8.424 10.344-2.692 20.264-6.378 29.506-10.531 33.321-15.095 57.485-38.087 84.871-57.57 12.972-9.185 26.961-17.727 42.732-24.514 8.309-3.568 17.296-6.318 26.114-9.068 10.513-3.276 21.79-4.739 32.557-7.489 10.005-2.574 22.13-3.217 32.643-4.387 12.972-1.463 26.114-2.516 38.917-4.388 17.89-2.692 34.338-7.548 44.597-18.488 22.129-23.578 4.494-58.096-16.618-78.865-22.977-22.583-58.587-37.619-93.943-49.437-18.313-6.085-37.305-11.233-55.958-16.85-25.606-7.664-51.296-15.211-77.579-21.588-24.08-5.792-50.448-12.287-75.884-6.612-19.161 4.271-35.779 13.047-51.889 21.179-15.261 7.665-30.777 15.153-48.582 19.717-20.01 5.031-42.054 4.856-62.657 2.164-23.062-3.042-43.156-11.701-62.826-20.008-21.281-8.952-41.969-18.547-63.42-27.381-21.281-8.776-44.174-14.977-65.709-23.285-21.621-8.425-43.75-15.913-64.692-25.216-20.433-9.068-39.85-19.248-57.993-30.423-16.194-9.946-31.71-23.05-40.189-36.8-16.618-27.029-8.563-58.154 10.09-83.662 17.72-24.28 47.395-44.113 81.31-57.686 36.203-14.51 78.426-21.121 108.695-42.066 31.795-21.939 35.695-56.107 31.879-85.242-.084-.585.424-.878 1.018-.936h.678c.678.058 1.187.409 1.272.936 3.646 27.965.085 58.622-26.199 81.556-27.131 23.636-71.983 31.71-109.204 44.99-39.85 14.218-73 37.795-91.4 66.053-11.022 16.967-16.024 35.806-13.396 54.352 2.46 17.669 15.347 32.763 32.134 45.81 33.406 25.976 77.664 44.873 121.753 61.196 21.62 8.016 44.428 14.451 65.963 22.642 21.875 8.249 42.648 17.786 63.674 26.971a999.723 999.723 0 0030.608 12.871c11.277 4.505 23.401 9.77 36.289 11.701 12.124 1.814 23.485 3.686 36.034 3.686 11.87.058 24.164-1.404 35.44-4.037 37.306-8.717 63.25-31.827 100.556-40.837 20.773-5.031 45.276-1.404 65.2 3.803 24.334 6.319 48.752 12.228 72.747 19.248 38.069 11.175 77.24 21.472 112.341 36.8 30.862 13.457 58.672 31.886 72.577 55.58 12.294 20.828 17.72 48.969-6.274 66.989-11.023 7.957-26.708 11.292-41.8 13.515z"/><path d="M831.217 420.086c-13.651 10.004-36.797 9.068-54.942 8.951-27.216-.234-54.432-2.516-81.479.936-18.568 2.399-36.288 6.319-52.906 12.696-35.017 13.398-59.435 37.092-86.821 56.516-13.057 9.244-27.216 17.844-43.41 24.397-7.716 3.159-16.364 5.909-24.927 7.839-11.192 2.575-23.062 4.564-34.084 7.372-11.277 2.867-25.097 3.686-36.967 5.149-13.82 1.638-27.471 3.627-41.206 5.499-22.383 3.042-44.852 7.84-65.794 14.1-37.475 11.174-70.626 29.136-90.636 53.942-24.673 30.657-21.451 66.169-6.868 98.64 7.377 16.323 17.297 32.119 26.454 47.974 4.409 7.606 8.648 15.329 12.548 23.11 3.307 6.436 6.952 13.222 8.394 20.009h-2.968c-1.611-7.255-5.765-14.568-9.157-21.413-4.154-8.425-8.987-16.674-13.82-24.923-9.241-15.914-18.822-31.71-26.029-48.092-13.227-30.364-14.498-62.776 5.596-91.853 38.408-55.58 132.351-70.967 212.389-80.094 23.4-2.691 46.717-7.138 68.591-13.456 19.586-5.675 35.95-13.866 51.296-23.929 28.149-18.429 50.871-40.661 82.327-56.633 34.338-17.376 76.053-21.706 117.598-20.711 12.718.292 25.351.819 38.069.819 12.463 0 26.792.058 38.153-3.979 21.027-7.371 25.012-27.263 26.284-41.597 2.883-31.827-12.379-65.643-39.171-91.444-24.418-23.577-59.35-40.895-96.147-54.293-42.647-15.562-87.16-28.843-126.586-48.267-18.059-8.951-34.677-19.365-46.462-32.47-11.785-13.164-12.718-27.79-10.514-42.826 2.459-17.2 12.718-33.7 13.82-51.075.594-9.42-4.408-17.786-16.787-22.29-11.192-4.038-24.673-4.155-37.052-3.57-37.475 1.814-82.072 12.696-101.488 36.332-11.786 14.276-11.701 31.827-9.412 47.682 2.374 16.382 7.97 34.05 0 50.081-5.341 10.765-18.483 18.663-33.66 22.524-17.211 4.388-36.034.878-52.652-3.159-25.266-6.143-49.26-14.86-74.018-21.94-24.588-7.02-49.43-13.456-73.848-20.71-39.086-11.585-77.495-27.732-105.898-49.847C23.461 85.552 11.507 72.68 5.996 59.049.23 44.715 2.519 30.791 6.42 16.457 9.896 3.352 23.038-9.46 35.755-19.114c13.057-9.888 29.167-17.727 45.87-24.397 35.355-14.158 76.392-21.12 103.693-43.41 15.855-12.99 20.264-29.078 26.368-44.933 6.698-17.376 4.494-37.326 1.781-54.995 0-.176 0-.351.084-.468h2.714c.084.117.169.292.254.468 4.833 31.651 2.798 67.749-22.723 95.422-22.298 24.163-62.996 32.53-97.927 44.874C77.385-40.001 59.835-32.22 44.658-22.45 27.616-11.391 16.763 1.772 9.302 16.984-6.722 49.805 19.646 82.86 53.56 104.8c34.847 22.583 79.954 37.327 124.127 49.028 24.758 6.552 49.006 13.573 73.34 20.769 22.553 6.67 45.615 15.387 70.457 17.084 21.366 1.404 41.63-7.313 51.041-20.243 11.616-16.031 3.731-37.444 1.272-54.352-2.12-14.333-1.018-29.252 7.207-42.65 6.443-10.473 18.398-18.722 32.049-24.865 15.007-6.786 32.558-10.706 49.769-13.69 18.738-3.218 40.019-4.739 58.587-.351 18.907 4.446 24.588 16.206 22.977 29.019-2.12 17.493-11.87 34.167-13.99 51.66-1.017 8.308-.084 16.264 1.95 24.455 2.035 8.425 11.87 17.259 19.586 23.636 16.279 13.515 37.984 23.695 59.604 32.763 39.68 16.674 83.091 28.609 122.77 45.166 33.406 13.983 63.251 32.178 84.023 55.112 23.232 25.567 34.678 58.506 30.947 88.461-1.272 12.344-5.341 24.981-18.059 34.284z"/><path d="M1978.03 662.064c-9.24-2.691-18.65-8.717-26.2-12.637-11.1-5.733-20.94-12.344-31.45-18.487-20.18-11.76-37.31-26.386-55.11-39.843-17.39-13.105-35.44-26.151-57.15-35.922-26.2-11.759-54.69-12.403-84.7-9.127-29.42 3.218-58.42 10.414-86.99 16.089-29.08 5.792-58.25 10.473-88.18 13.574-59.94 6.201-121.58.526-181.86.643-14.84 0-29.85.234-44.6-.878-13.65-1.053-26.88-2.691-40.36-4.27-26.11-2.984-52.23-11.058-76.48-18.196-57.4-16.791-113.61-35.571-171.01-52.245-37.305-10.823-76.392-23.051-105.812-42.709-36.374-24.28-38.917-59.441-49.77-91.619-6.783-20.009-14.498-40.018-27.894-58.447-12.973-17.844-29.76-34.518-50.448-48.501-37.051-25.099-83.684-39.959-127.348-58.389-40.528-17.083-81.31-40.017-86.906-74.477-3.052-18.722 6.444-37.794 14.922-55.229 8.988-18.546 22.977-42.065 9.92-61.08C598.65-7.12 565.074-6.651 541.758-4.72c-29.336 2.398-58.163 7.488-86.99 11.76-12.803 1.871-25.605 3.919-38.154 6.376-14.837 2.925-31.031 5.09-44.851 10.005-5.003 1.755-10.599 2.866-15.601 4.797-5.766 2.223-10.937 4.973-15.94 7.84-10.259 6.026-18.568 13.573-25.351 21.53-11.276 13.28-16.872 28.492-28.488 41.714-4.833 5.5-10.683 10.473-17.805 14.626-7.376 4.33-15.516 5.734-24.333 7.899-10.005 2.457-23.062 1.755-33.406 1.404-13.227-.468-27.471-1.755-40.019-4.681-20.094-4.68-38.917-9.477-57.061-17.259-32.642-13.924-61.13-36.683-63.505-64.063-2.458-28.61 27.81-49.788 61.216-63.069 37.645-14.977 83.344-21.413 104.202-50.724 11.361-15.913 15.516-34.226 18.059-51.66 1.441-9.888 1.781-19.834 1.441-29.78-.254-9.711-2.713-19.365-2.967-29.018a.85.85 0 01.169-.468h2.714a.85.85 0 01.169.468c.17 9.653 2.544 19.307 2.968 29.018.424 10.765-.255 21.53-1.866 32.237-2.458 16.557-7.037 33.114-16.872 48.384-19.501 30.247-65.624 37.911-104.202 52.48C95.191-17.3 76.877-7.414 64.753 6.16 49.237 23.42 50.678 44.072 63.142 61.916c10.344 14.802 28.234 26.562 47.734 35.688 17.721 8.308 39.595 16.206 60.792 19.073 26.877 3.686 53.839 7.723 80.801 1.463 22.298-5.149 34.338-21.94 43.241-35.689 9.496-14.509 16.787-28.55 32.218-40.778 16.194-12.812 36.712-18.604 59.096-24.514 25.86-6.786 54.433-10.12 81.394-14.158 26.538-3.978 53.246-8.307 80.293-10.238 20.009-1.463 42.138-.293 57.484 9.712 16.534 10.765 13.481 28.609 9.242 42.358-5.935 19.248-18.144 37.267-23.994 56.574-6.529 21.472-1.866 44.172 19.077 61.256 33.151 27.146 78.935 42.357 122.515 59.909 21.112 8.483 40.782 18.137 59.35 29.136 20.773 12.286 37.221 27.088 51.211 43.177 29.929 34.459 37.306 73.541 50.278 111.92 5.596 16.674 13.311 31.652 29.76 44.757 14.244 11.409 32.812 20.009 51.719 27.381 44.937 17.493 94.287 29.954 141.337 44.464 27.81 8.541 55.45 17.551 83.43 25.859a1310.23 1310.23 0 0043.58 12.111c12.72 3.276 26.03 4.973 38.92 7.839 13.56 3.043 29.16 3.394 43.24 4.447 15.94 1.17 32.39.585 48.41.585 30.95 0 61.98 1.17 92.93 1.697 26.96.468 53.92.234 80.71-2.282 26.37-2.516 52.15-6.67 77.75-11.526 47.57-9.127 97.59-23.753 147.7-19.131 40.78 3.803 72.91 30.247 98.86 49.788 15.85 11.935 31.37 24.046 48.5 35.103 9.07 5.851 18.31 11.584 28.06 16.908a341.855 341.855 0 0016.19 8.25c3.99 1.93 8.82 4.739 13.65 6.494v2.515h-.59z"/><path d="M1978.03 635.035c-7.71-2.457-15.43-7.606-21.7-10.999-11.11-5.967-21.54-12.637-31.54-19.541-18.91-13.046-35.36-27.614-51.81-42.124-14.58-12.929-27.72-26.971-46.88-36.916-22.56-11.702-48.59-10.999-74.53-5.909-54.94 10.765-106.41 28.609-162.79 36.156-27.22 3.686-54.26 5.616-82.07 5.324-28.32-.234-56.05-2.925-84.28-4.681-55.28-3.393-110.9-1.638-165.5-8.775-27.56-3.628-54.1-10.941-80.04-18.137-26.2-7.313-51.97-15.387-77.49-23.753-42.4-13.808-84.79-27.615-120.485-49.086-16.449-9.888-30.693-21.413-41.8-34.284-12.378-14.217-19.585-30.657-27.131-46.278-9.242-19.131-16.618-38.848-28.997-57.16-11.022-16.381-22.807-32.119-38.238-46.804-31.032-29.545-73.934-49.028-117.598-68.569-19.84-8.834-39.087-18.195-56.298-29.369-16.618-10.765-32.134-23.636-36.797-39.433-10.514-35.513 16.194-66.754 27.216-100.454 5.85-17.902 6.952-38.613-8.987-54.176-17.721-17.317-48.074-17.434-75.46-14.86-28.742 2.691-56.891 9.887-85.125 14.45-28.064 4.506-56.213 8.543-84.786 11-29.251 2.516-58.756 3.276-88.177 5.031-12.803.76-26.284 1.229-38.662 3.92-15.262 3.335-22.13 12.754-26.454 22.583-10.428 23.753-28.573 50.959-69.015 52.83-34.339 1.58-71.305-17.434-69.864-42.416 1.441-24.572 44.343-35.63 72.916-40.603 17.89-3.1 37.73-4.563 50.617-14.626 7.376-5.733 9.666-15.855 10.683-23.285 1.357-9.595 3.222-19.131 4.324-28.726 4.324-37.268 3.476-74.887-1.865-112.096-.085-.352.169-.644.509-.761h1.78c.339.176.678.409.678.761 5.851 40.485 6.105 81.264.679 121.75-1.866 13.924-1.696 32.236-14.668 43.82-11.446 10.18-32.728 11.993-49.685 14.743-20.179 3.277-40.612 7.84-56.213 17.61-20.603 12.93-21.366 31.652-3.561 46.102 16.533 13.398 44.258 18.664 68.592 13.925 22.299-4.33 34.593-20.536 42.817-34.167 6.952-11.409 9.835-27.732 25.436-35.22 17.974-8.718 44.173-7.899 65.115-9.01 30.353-1.639 60.876-2.575 90.975-5.91 29.675-3.217 59.011-7.722 88.093-12.87 41.969-7.49 101.658-24.573 137.777.701 34.169 23.87 14.329 64.18 1.017 91.21-8.563 17.318-16.533 34.518-16.448 53.006.085 20.536 14.074 36.683 34.423 50.841 35.017 24.514 81.225 39.257 120.396 60.085 40.104 21.296 69.864 49.262 91.908 80.445 23.57 33.348 31.625 71.026 55.535 104.257 20.942 29.136 59.265 50.08 99.198 66.052 21.71 8.718 44.6 15.855 67.24 23.227 27.55 8.951 55.19 17.552 83.43 25.391 13.22 3.686 26.62 7.431 40.35 10.239 12.38 2.516 25.19 4.212 37.48 6.786 12.89 2.692 27.55 2.926 40.95 3.686 15.18.878 30.35 1.287 45.62 1.697 29.25.761 58.41 1.287 87.49 3.51 28.15 2.107 56.13 3.979 84.54 3.745 50.02-.41 98.69-9.42 145.4-21.062 22.73-5.617 45.11-11.701 68-16.908 17.72-4.037 40.53-9.888 59.61-7.079 18.4 2.691 32.72 8.132 46.21 17.142 14.58 9.77 25.77 21.822 38.32 32.763 14.75 12.929 29.5 25.683 46.04 37.56 8.31 5.968 17.12 11.584 26.28 16.908 4.83 2.808 9.84 5.5 14.84 8.074 3.56 1.814 7.88 4.505 12.29 6.201v2.516h.17z"/><path d="M757.793 350.816c-8.733 9.77-25.097 15.211-40.358 18.663-11.87 2.691-23.825 5.441-35.78 8.015-13.735 2.867-29.166 6.143-41.63 11.058-10.089 3.978-20.433 7.313-30.268 11.701-11.616 5.207-22.299 11.233-32.304 17.902-17.127 11.468-31.964 24.456-47.819 36.742-15.431 11.935-32.388 22.875-51.635 31.827-20.264 9.419-42.817 14.158-65.539 19.599-11.785 2.867-24.249 4.329-36.373 6.436-12.973 2.223-27.217 3.159-39.68 6.377-5.087 1.287-10.768 1.579-16.025 2.574a1872.465 1872.465 0 01-17.72 3.393c-12.803 2.341-25.181 5.558-37.475 8.835-48.922 13.163-84.786 37.092-120.481 62.776-13.057 9.361-29.76 20.36-49.684 20.769-19.84.468-39.51-11.116-54.348-18.721-36.458-18.547-68.677-41.071-97.504-65.117v-3.218c30.523 25.684 64.692 49.379 103.693 68.978 9.157 4.622 18.568 9.303 28.997 12.403 12.972 3.92 24.418 4.505 37.306 0 21.45-7.488 36.797-22.349 53.5-33.874 16.702-11.526 34.847-22.115 54.686-31.008 20.773-9.303 43.665-15.329 66.812-21.062 22.977-5.734 47.649-8.893 71.389-12.579 25.182-3.861 50.363-7.957 74.697-13.983 25.181-6.26 47.31-15.738 67.405-27.79 17.889-10.765 32.896-23.636 48.412-35.98 15.431-12.287 31.456-23.929 50.533-33.466 19.924-10.004 41.714-16.849 64.606-22.934 22.638-6.026 47.565-8.951 69.186-16.849 22.892-8.366 31.625-23.519 24.672-40.661-11.53-28.61-52.058-44.816-88.516-56.517-23.062-7.43-47.311-13.573-71.729-18.604-22.807-4.681-46.123-8.484-70.118-8.25-46.378.41-84.277 23.227-124.805 35.689-40.612 12.461-89.11 12.344-130.4 1.462-46.124-12.169-86.651-33.348-130.147-49.261-16.618-6.085-33.914-11.35-50.532-17.435-16.788-6.143-33.236-12.637-49.684-19.248-16.449-6.611-32.897-13.222-49.43-19.658-16.534-6.435-33.406-11.994-50.533-17.552v-2.223c23.4 7.606 46.123 15.563 68.592 24.514 22.892 9.068 45.614 18.371 68.761 27.205 22.892 8.717 46.802 16.089 69.864 24.631 22.722 8.425 44.512 17.961 66.726 26.912 21.451 8.601 43.919 17.727 67.829 22.642 23.74 4.856 47.649 6.318 72.237 4.563 46.463-3.334 81.988-24.045 123.533-36.332 20.264-6.026 41.206-8.658 63.166-7.547 22.383 1.112 43.241 5.558 64.607 9.829 22.383 4.447 44.597 10.941 65.709 17.727 17.466 5.617 34.423 11.994 49.6 20.185 27.046 14.392 54.771 43.118 33.999 66.462zM1978.03 612.452c-7.04-2.516-14.41-8.015-19.67-11.174-10.17-6.085-19.41-12.872-28.15-19.892-15.51-12.637-28.99-25.977-40.69-40.486-11.79-14.626-22.22-29.779-35.19-43.937-6.28-6.904-13.82-13.691-25.44-16.557-12.55-3.101-23.99-.937-35.78 2.574-23.23 6.903-45.19 15.621-67.32 23.987-22.3 8.425-45.1 15.27-68.25 22.407-43.24 13.34-92.16 19.658-139.39 19.541-27.47-.058-54.94-2.866-82.15-5.324-27.48-2.457-55.03-4.446-82.67-5.382-27.56-.936-55.03-1.229-82.41-3.628-21.96-1.93-43.41-5.909-64.61-10.238-24.84-5.09-49.09-12.813-72.75-20.009-19.84-6.026-39.42-12.461-58.5-19.599-36.03-13.515-70.12-30.072-96.909-51.66-30.268-24.397-44.003-55.054-60.706-84.424-20.179-35.571-42.478-69.446-79.105-98.581-16.534-13.164-35.865-24.455-55.79-35.045-19.67-10.472-41.036-19.482-60.282-30.364-16.534-9.361-32.558-19.248-44.598-31.535-11.361-11.584-15.855-24.221-16.279-37.97-.932-33.699 25.351-64.824 32.728-97.704 3.9-17.434 2.289-35.98-10.259-51.66-12.294-15.328-34.678-23.928-59.69-24.865-26.877-.936-53.669 6.085-78.766 11.701-25.351 5.617-50.702 11.233-76.816 15.036-24.418 3.57-49.345 5.734-74.272 5.968-22.468.234-46.632-.936-67.574-6.904-30.947-8.834-45.107-29.662-49.855-51.31-3.391-15.561-5.172-31.358-6.698-47.037-.932-9.01-1.695-18.079-2.713-27.088-.509-4.505-1.017-9.01-1.611-13.515-.508-4.095.085-9.946-2.289-13.749-.424-.643.17-1.228.848-1.462h1.102c.254.058.424.234.594.409 1.526 2.457 1.356 5.383 1.78 8.015.678 4.505 1.272 9.01 1.781 13.457 1.187 9.77 2.034 19.54 2.967 29.369 1.696 17.61 3.561 35.22 7.376 52.714 2.883 12.988 9.327 25.8 22.045 35.805 13.226 10.414 32.218 15.036 51.465 17.259 53.33 6.143 109.034-1.697 160.076-12.228 25.944-5.382 51.38-11.642 77.663-16.089 20.434-3.451 43.241-3.744 62.742 2.4 39.51 12.52 48.752 45.34 43.326 72.37-6.868 34.401-33.915 66.17-32.897 101.332.932 34.108 41.714 57.276 78.851 75.472 10.259 5.031 20.518 10.004 30.607 15.152 10.853 5.5 20.773 11.877 31.795 17.201 7.97 3.803 15.092 9.302 21.96 13.924 9.665 6.553 18.313 13.808 26.792 21.121 31.795 27.205 52.991 61.489 69.439 94.31 15.686 31.301 34.424 61.958 68.253 86.062 29.509 21.003 66.469 36.39 104.119 49.437 22.3 7.723 45.27 14.626 68.42 21.179 24.33 6.903 50.02 14.275 76.05 17.434 25.18 3.043 49.86 5.675 75.55 6.436 27.98.819 55.87 1.58 83.77 3.452 54.17 3.569 106.91 10.882 161.51 6.552 50.2-3.978 99.37-17.025 144.05-33.055 22.47-8.074 44.35-16.908 66.99-24.748 15.09-5.207 37.64-14.743 55.19-9.536 16.62 4.914 24.59 12.695 33.83 23.168 11.11 12.579 20.35 25.918 30.61 38.847 10.68 13.457 22.89 27.264 38.24 38.438 7.88 5.734 15 11.819 23.31 17.26 3.73 2.457 7.55 4.739 11.45 7.079 3.73 2.164 8.22 5.499 12.89 7.488v2.399h-.09z"/><path d="M1978.03 580.215v2.515c-6.1-4.387-13.06-8.249-18.91-12.812-7.12-5.617-13.39-11.643-19.24-17.903-11.62-12.52-20.18-26.269-26.71-40.31-14.84-31.827-17.13-65.351-9.58-98.231 3.98-17.142 17.46-37.268 10.26-54.644-1.95-4.739-7.89-8.073-14.33-9.594-6.36-1.522-12.04.117-17.89 1.521-14.84 3.627-24.5 11.993-33.58 20.477-14.41 13.397-25.69 28.258-37.98 42.591-12.21 14.334-26.11 28.025-41.71 40.72-60.37 49.262-149.48 80.913-243.68 80.621-52.74-.176-104.03-9.654-156.43-12.462-51.04-2.75-103.86-1.814-153.21-12.052-46.21-9.537-90.55-22.408-132.26-39.199-39.85-16.03-72.92-36.156-99.203-62.308-14.668-14.509-24.333-30.891-34.931-46.921-10.938-16.616-20.095-33.758-31.117-50.373-19.67-29.663-46.039-57.277-78.257-81.206-30.947-22.993-69.61-39.784-102.337-61.489-6.952-4.622-13.396-9.595-19.161-14.919-5.596-5.148-12.888-12.228-15.008-18.605-2.289-6.962-5.172-13.163-5.85-20.418-.763-8.366.424-16.908 2.798-25.099 10.344-35.337 35.186-69.212 34.593-105.894-.509-31.3-26.284-61.548-71.983-69.797-21.282-3.803-43.072.409-63.336 4.972-23.74 5.266-46.632 12.287-69.863 18.547-45.276 12.169-93.943 20.184-142.78 16.089-35.355-2.984-63.928-15.738-79.783-37.97-8.309-11.701-12.379-24.748-15.262-37.561-4.069-18.078-6.443-36.273-9.411-54.41-.593-3.452-1.526-6.962-1.611-10.472 0-.527.509-.878 1.103-.936h.763c.593.117 1.102.409 1.102.936.254 8.717 2.798 17.727 4.154 26.444 1.611 10.531 3.222 21.062 5.511 31.535 3.137 14.392 6.699 28.726 15.347 42.065 7.546 11.584 19.331 21.471 34.847 28.375 19.331 8.542 42.986 10.648 65.454 11.058 49.685.877 96.656-10.59 142.017-23.227 36.542-10.18 79.19-24.865 119.209-16.03 36.712 8.132 60.028 31.944 65.878 57.276 8.055 34.46-13.226 68.744-26.707 101.215-3.561 8.483-6.698 17.142-8.14 25.917-1.526 9.478 0 17.962 1.018 27.381.763 7.372 7.291 15.445 12.718 21.705 6.104 7.08 14.244 13.34 22.638 19.19 31.964 22.115 70.88 38.731 102.336 61.314 31.625 22.817 57.146 49.495 77.07 77.812 22.553 32.002 37.476 66.696 64.607 97.177 25.857 29.136 63.077 50.725 105.477 67.808 20.09 8.074 40.95 15.212 62.31 21.472a979.984 979.984 0 0039.6 10.823c11.62 2.925 24.42 6.026 36.54 7.372 12.55 1.345 24.67 3.861 37.39 4.973 13.82 1.228 27.64 1.93 41.46 2.574 26.8 1.287 53.59 1.989 80.21 3.744 52.23 3.394 102.93 12.579 155.84 11.409 50.02-1.112 98.6-12.696 141.5-30.072 43.08-17.376 77.08-41.89 106.33-69.387 14.49-13.632 25.94-28.726 38.49-43.236 10.77-12.52 23.23-28.258 40.95-36.683 14.33-6.786 33.41-10.882 45.7.059 5.34 4.68 5.26 11.057 5.09 16.674-.26 8.483-3.31 16.908-6.19 25.157-22.13 63.303-6.53 138.951 66.13 184.702z"/><path d="M1978.03 300.267c-7.55-4.739-18.57-7.898-27.64-10.121-11.78-2.867-24.33-3.861-36.71-3.861-22.81-.059-46.13 4.504-64.78 13.456-37.05 17.785-52.57 49.729-65.71 77.987-13.56 29.136-31.79 57.336-59.86 81.264-26.79 22.818-61.72 39.609-100.64 51.193-45.27 13.573-96.48 13.69-144.56 9.36-24.16-2.164-47.9-5.733-71.9-8.6-26.96-3.159-54.26-4.388-81.56-5.733-49.51-2.399-98.77-5.441-145.49-17.61-45.19-11.76-88.52-27.03-125.99-48.326-74.954-42.592-96.66-111.102-144.224-166.623-24.419-28.551-54.518-54.878-90.891-76.642-16.448-9.829-32.727-20.126-47.819-30.891-13.905-9.888-26.708-21.472-33.321-34.635-15.516-30.716 4.07-64.415 19.162-93.258 8.733-16.674 17.55-33.231 23.909-50.432 6.953-18.78 10.005-36.507-3.222-54.293-10.513-14.158-26.453-26.268-44.851-35.746-17.805-9.186-40.443-16.967-63.081-17.084-23.91-.117-47.989 8.249-69.016 15.27-20.433 6.845-40.188 14.568-60.537 21.589-28.912 10.004-58.417 17.493-90.636 20.418-30.693 2.808-64.098 1.521-90.806-10.297-52.567-23.285-52.906-75.18-60.282-112.857-.085-.644.508-1.053 1.187-1.229h1.017c.339.117.678.293.763.702 5.935 30.131 7.207 63.186 29.929 90.157 23.571 27.966 68.253 34.928 112.257 31.944 47.989-3.218 89.449-18.429 131.418-33.64 36.797-13.34 79.021-30.599 121.413-20.653 38.239 8.952 70.288 30.248 87.245 55.23 9.751 14.392 6.953 29.837 2.205 44.814-5.427 17.318-14.244 34.05-22.893 50.666-16.024 30.54-39.849 67.574-21.196 99.927 16.788 29.077 57.654 48.794 89.958 69.388 34.168 21.705 61.893 47.916 85.04 75.53 23.91 28.551 40.782 59.208 61.555 88.811 21.874 31.125 51.467 59.149 91.907 79.919 9.58 4.914 19.76 9.419 30.01 13.69 11.03 4.563 23.49 10.648 35.78 13.281 4.24.877 8.82 2.925 12.98 4.212 6.61 2.048 13.22 4.037 20.01 5.851 12.21 3.276 25.09 5.499 37.05 8.951 9.58 2.691 21.62 3.92 31.71 5.265 14.33 1.873 28.82 3.043 43.41 4.096 26.37 1.813 52.9 2.691 79.27 4.212 51.38 3.042 101.41 12.696 152.96 14.802 51.46 2.106 100.72-5.909 144.98-24.104 37.56-15.387 67.49-37.97 89.28-63.947 17.8-21.296 30.44-45.517 40.78-68.977 8.14-18.488 20.52-36.449 38.66-51.251 18.15-14.861 43.41-24.163 71.39-26.503 15.43-1.287 30.87-.878 46.04 1.58 11.28 1.872 24.93 5.499 34.6 10.94v2.808h-.26z"/></g></symbol><symbol fill="none" viewBox="0 0 52 52" id="express-delivery" xmlns="http://www.w3.org/2000/svg"><path d="M0 17.875h17.367v1.016H0v-1.016zM11.477 12.492h13.609v1.016h-13.61v-1.016zM5.79 23.766h11.679v1.015H5.789v-1.015zM33.922 26h1.016v17.875h-1.016V26z" fill="#0D0D0D"/><path d="M34.43 26.508a.472.472 0 01-.234-.061l-17.062-8.938.467-.904 16.829 8.826 16.828-8.815.468.904-17.063 8.937a.602.602 0 01-.233.05z" fill="#0D0D0D"/><path d="M40.93 30.063a.504.504 0 01-.264-.082.499.499 0 01-.244-.426v-6.653L23.248 14.32l.457-.904 17.458 8.725a.508.508 0 01.285.457v6.144l3.859-1.889v-6.429l-15.133-7.627.457-.904 15.417 7.77a.51.51 0 01.275.456v7.06a.508.508 0 01-.285.456l-4.875 2.387c-.081.02-.152.04-.233.04zM11.172 36.867H22.14v1.016H11.17v-1.016z" fill="#0D0D0D"/><path d="M34.43 44.383a.472.472 0 01-.234-.061l-5.027-2.63.467-.904 4.794 2.508 16.554-8.663V17.367L34.43 8.694l-16.555 8.673v17.266l9.872 5.17-.467.903-10.146-5.312a.527.527 0 01-.275-.446V17.062c0-.193.102-.365.275-.446l17.062-8.938a.478.478 0 01.467 0l17.063 8.938a.527.527 0 01.274.447v17.875a.484.484 0 01-.274.446l-17.063 8.938a.472.472 0 01-.233.06z" fill="#0D0D0D"/></symbol><symbol fill="none" viewBox="0 0 15 16" id="houses" xmlns="http://www.w3.org/2000/svg"><path d="M14.834 6.124L10.79 2.868a.446.446 0 00-.56 0l-1.225.987-1.225-.987a.446.446 0 00-.56 0l-1.225.987-1.225-.987a.446.446 0 00-.56 0L.167 6.124A.446.446 0 000 6.472v6.602c0 .247.2.446.446.446h2.776c.247 0 .446-.2.446-.446v-1.99a.823.823 0 011.643 0v1.99c0 .247.2.446.446.446h8.798c.245 0 .445-.2.445-.446V6.472a.446.446 0 00-.166-.348zM8.088 12.63H6.203v-1.544c0-.945-.768-1.713-1.713-1.713-.945 0-1.713.768-1.713 1.713v1.543H.892V6.686L4.49 3.788l3.598 2.897v5.944zm3.01 0H8.98V6.472a.446.446 0 00-.166-.348L6.706 4.427l.794-.639 3.598 2.897v5.944zm3.01 0H11.99V6.472a.446.446 0 00-.166-.348L9.716 4.427l.794-.639 3.598 2.897v5.944z" fill="#000"/></symbol><symbol fill="none" viewBox="0 0 8 16" id="left-ar" xmlns="http://www.w3.org/2000/svg"><path d="M7.713 15.295A1.22 1.22 0 008 14.498a1.22 1.22 0 00-.287-.797L2.864 8.117l4.85-5.582c.178-.212.276-.497.274-.793a1.219 1.219 0 00-.287-.787.92.92 0 00-.684-.33.915.915 0 00-.689.316L.787 7.322a1.22 1.22 0 00-.287.796c0 .3.103.586.287.798l5.541 6.38a.92.92 0 00.693.33.92.92 0 00.692-.33z" fill="#000"/></symbol><symbol fill="none" viewBox="0 0 11 12" id="location" xmlns="http://www.w3.org/2000/svg"><path d="M1.611 1.532A5.648 5.648 0 015.5 0c1.459 0 2.858.55 3.89 1.532A5.102 5.102 0 0111 5.229c0 1.387-.58 2.717-1.61 3.697l-.75.705a439.27 439.27 0 01-2.152 1.99A1.46 1.46 0 015.5 12a1.46 1.46 0 01-.988-.38L2.307 9.58c-.277-.258-.509-.476-.696-.654A5.22 5.22 0 01.419 7.23a5.006 5.006 0 010-4.002A5.22 5.22 0 011.61 1.532zm7.108.636A4.675 4.675 0 005.499.901a4.675 4.675 0 00-3.218 1.268 4.223 4.223 0 00-1.334 3.06c0 1.148.48 2.25 1.334 3.06l.939.882a462.67 462.67 0 001.95 1.802.487.487 0 00.33.127.487.487 0 00.33-.127L7.972 8.99c.297-.277.545-.51.745-.701a4.223 4.223 0 001.334-3.06c0-1.148-.48-2.25-1.334-3.06v-.002zM5.5 3.592c.25 0 .496.047.726.137.23.09.439.223.615.39a1.8 1.8 0 01.41.586 1.726 1.726 0 010 1.38 1.8 1.8 0 01-.41.584c-.176.168-.385.3-.615.391-.23.09-.477.137-.726.137a1.945 1.945 0 01-1.318-.539 1.758 1.758 0 01-.544-1.263c0-.472.196-.926.544-1.263.348-.337.821-.53 1.318-.54zm0 .9a.992.992 0 00-.67.265.9.9 0 00-.206.292.863.863 0 00.205.983c.088.084.193.15.308.196a.992.992 0 001.034-.195.88.88 0 00.277-.638.88.88 0 00-.277-.638.974.974 0 00-.671-.264z" fill="#000"/></symbol><symbol fill="none" viewBox="0 0 252 38" id="logo" xmlns="http://www.w3.org/2000/svg"><path fill-rule="evenodd" clip-rule="evenodd" d="M90.08 6.613c-1.3.21-3.41.849-4.691 1.42-1.281.572-3.053 1.598-3.938 2.281-.885.683-2.122 2.16-2.749 3.284-.627 1.123-1.272 3.01-1.433 4.193-.2 1.475-.076 2.88.396 4.462.425 1.424 1.34 3.03 2.384 4.186.932 1.032 2.658 2.388 3.834 3.012 1.177.625 3.39 1.422 4.918 1.773 1.527.35 3.984.64 5.461.644 1.477.004 3.718-.205 4.98-.464 1.261-.26 3.289-.941 4.504-1.516 1.215-.574 3.03-1.82 4.032-2.768l1.823-1.725-2.491-1.375-2.491-1.377-1.519 1.3c-.836.716-2.395 1.678-3.464 2.14-1.069.46-3.14.93-4.6 1.045a14.56 14.56 0 01-5.202-.514c-1.745-.494-3.051-1.212-4.145-2.277-.878-.856-1.837-2.34-2.131-3.299-.297-.965-.41-2.398-.253-3.213.156-.808.717-2.109 1.247-2.889.556-.818 1.96-1.91 3.315-2.58 1.958-.966 2.906-1.16 5.682-1.16 1.858 0 4.148.28 5.177.634 1.014.35 2.756 1.273 3.87 2.053l2.026 1.419 2.354-.844c1.295-.463 2.439-.916 2.544-1.006.103-.09-.676-1.025-1.732-2.079-1.057-1.053-3.095-2.462-4.528-3.13-1.434-.67-3.87-1.417-5.413-1.66-1.543-.245-3.39-.424-4.105-.399-.714.026-2.362.219-3.662.429zm132.477 1.84v2.321H252V6.132H222.557v2.321zM0 19.003V31.03H6.062V6.977H0v12.027zm8.66-9.758v2.373h4.993c3.528 0 5.464.192 6.597.653.883.36 2.064 1.071 2.625 1.583.562.511 1.295 1.442 1.63 2.069.335.627.608 2.123.608 3.326 0 1.48-.291 2.647-.903 3.612-.497.784-1.785 1.928-2.861 2.543-1.757 1.003-2.506 1.138-7.323 1.32l-5.366.2v4.106h5.983c4.102 0 6.683-.202 8.208-.643 1.223-.355 3.056-1.263 4.074-2.02 1.018-.756 2.44-2.303 3.159-3.437 1.19-1.878 1.307-2.386 1.303-5.683-.005-2.893-.193-3.959-.937-5.308-.512-.928-1.581-2.295-2.376-3.037-.795-.741-2.614-1.87-4.043-2.51-2.374-1.06-3.149-1.176-8.985-1.34l-6.386-.18v2.373zm105.216 9.758V31.03h6.062l.001-3.481v-3.482l8.939-6.119a2162.05 2162.05 0 0012.407-8.545l3.467-2.427h-8.367L132.6 9.63a694.428 694.428 0 01-7.977 5.486c-2.305 1.557-4.302 2.832-4.438 2.832-.136 0-.247-2.469-.247-5.486V6.976h-6.062v12.027zm51.093-11.746c0 .154 1.653 3.383 3.673 7.174l3.672 6.893h-5.188c-2.94 0-5.188-.171-5.188-.396 0-.217.763-1.765 1.695-3.44l1.695-3.045-1.354-2.678c-.746-1.474-1.471-2.679-1.612-2.679-.142 0-1.831 2.896-3.754 6.436s-4.608 8.477-5.966 10.972l-2.469 4.537h6.078l1.428-2.532 1.428-2.533h15.77l1.385 2.532 1.385 2.532h2.97c1.634 0 2.971-.087 2.971-.194 0-.107-2.455-4.713-5.456-10.234-3-5.521-5.931-10.846-6.513-11.832l-1.057-1.794h-2.797c-1.538 0-2.796.126-2.796.28zm22.949 11.746V31.03h6.061V6.977h-6.061v12.027zm8.659-9.735v2.29l6.751.136c6.491.13 6.782.174 7.577 1.131.455.548.827 1.459.827 2.024s-.478 1.494-1.063 2.063c-1.034 1.008-1.238 1.036-7.577 1.036h-6.515v4.642l4.438.016 4.439.014 2.945 4.206 2.945 4.204h6.931l-3.029-4.325-3.029-4.326 1.165-.577c.64-.318 1.693-1.059 2.339-1.647.744-.677 1.355-1.857 1.668-3.222.378-1.644.371-2.603-.028-4.05-.337-1.222-1.107-2.44-2.161-3.418-1.001-.929-2.407-1.71-3.611-2.005-1.085-.266-4.906-.484-8.492-.484h-6.52v2.292zm37.67 12.69v8.65h6.062V13.306h-6.062v8.651zm-103.592-2.05c-1.132.823-2.057 1.625-2.057 1.78 0 .156 2.094 2.31 4.655 4.788l4.654 4.505 3.79.13c2.084.072 3.789.033 3.788-.086 0-.118-2.874-3.005-6.387-6.415l-6.387-6.198-2.056 1.497z" fill="#0042A4"/><path d="M42.423 13.938l6.505-6.59C52.506 3.723 55.532.763 55.652.77c.12.007.858.6 1.639 1.32l1.42 1.305-1.656 1.812c-.91.996-3.888 4.063-6.617 6.815l-4.962 5.005-1.526-1.545-1.527-1.544zM49.433 21.03l6.634-6.679c3.648-3.673 6.73-6.68 6.846-6.682.118-.002.761.69 1.43 1.539l1.216 1.541-2.972 3.1a411.898 411.898 0 01-6.57 6.65l-3.597 3.55-1.493-1.51-1.494-1.51zM56.367 28.014l6.582-6.69c3.62-3.68 6.687-6.704 6.817-6.72.13-.017.893.654 1.695 1.491l1.458 1.523-6.707 6.784-6.708 6.784-1.568-1.586-1.57-1.587zM36.46 19.99l1.99-2.045 1.992-2.045 8.508 8.674 8.507 8.675-1.968 1.99-1.968 1.99-8.53-8.62-8.531-8.62z" fill="#82746A"/></symbol><symbol fill="none" viewBox="0 0 50 50" id="measuring-tape" xmlns="http://www.w3.org/2000/svg"><g clip-path="url(#rclip0_1_1497)" fill-rule="evenodd" clip-rule="evenodd" fill="#000"><path d="M14.677 11.21C7.074 11.21.887 17.396.887 25c0 3.825 1.535 7.38 4.32 10.012 2.597 2.453 5.93 3.777 9.46 3.778a14.209 14.209 0 00.833-.024h12.865V23.322c-.838-6.907-6.717-12.112-13.688-12.112zm-.013 28.467c-3.756 0-7.302-1.41-10.065-4.02C1.632 32.858 0 29.072 0 25c0-8.093 6.583-14.678 14.677-14.678 7.428 0 13.693 5.555 14.572 12.92a.369.369 0 01.004.053V39.21a.444.444 0 01-.444.444H15.511c-.283.015-.565.023-.847.023z"/><path d="M14.626 18.206A6.8 6.8 0 007.833 25a6.8 6.8 0 006.793 6.793A6.801 6.801 0 0021.42 25a6.8 6.8 0 00-6.794-6.794zm0 14.475c-4.236 0-7.68-3.446-7.68-7.681 0-4.236 3.444-7.682 7.68-7.682s7.682 3.446 7.682 7.682c0 4.235-3.447 7.68-7.682 7.68zM30.662 39.653H28.81a.444.444 0 110-.887h1.853a.885.885 0 00.885-.884v-3.79a.885.885 0 00-.885-.885H28.81a.444.444 0 010-.887h1.853c.978 0 1.772.794 1.772 1.772v3.79c0 .977-.794 1.772-1.772 1.771z"/><path d="M32.434 37.35h16.674v-2.995H32.434v2.995zm17.118.888H31.99a.444.444 0 01-.444-.444v-3.883c0-.245.198-.444.444-.444h17.56c.246 0 .444.199.444.444v3.883a.444.444 0 01-.443.444z"/><path d="M49.552 34.36a.449.449 0 01-.449-.449v-2.537a.449.449 0 01.897 0v2.537a.449.449 0 01-.448.449zM34.455 35.729a.444.444 0 01-.444-.444V33.91a.444.444 0 01.888 0v1.373a.444.444 0 01-.444.445zM36.92 36.218a.444.444 0 01-.444-.443V33.91a.444.444 0 01.888 0v1.864a.444.444 0 01-.444.444zM39.384 35.729a.444.444 0 01-.444-.444V33.91a.444.444 0 01.888 0v1.373a.444.444 0 01-.444.445zM42.158 36.218a.444.444 0 01-.444-.443V33.91a.444.444 0 01.888 0v1.864a.444.444 0 01-.444.444zM44.622 35.729a.444.444 0 01-.444-.444V33.91a.444.444 0 11.888 0v1.373a.444.444 0 01-.444.445zM47.087 36.218a.444.444 0 01-.444-.443V33.91a.444.444 0 11.888 0v1.864a.444.444 0 01-.444.444zM26.993 18.304a.443.443 0 01-.223-.829l1.333-.769c-1.263-2.002-3.083-3.71-5.305-4.973l-.657 1.138a.445.445 0 01-.769-.444l.875-1.515a.444.444 0 01.595-.17c2.678 1.436 4.843 3.476 6.258 5.898a.443.443 0 01-.16.608l-1.726.996a.439.439 0 01-.221.06z"/></g><defs><clipPath id="rclip0_1_1497"><path fill="#fff" d="M0 0h50v50H0z"/></clipPath></defs></symbol><symbol fill="none" viewBox="0 0 46 46" id="quality" xmlns="http://www.w3.org/2000/svg"><path d="M23.607 10.797a.46.46 0 00.45-.43l.209-2.46a.466.466 0 00-.41-.51.458.458 0 00-.491.428l-.209 2.46a.466.466 0 00.451.512zM31.356 10.818a.44.44 0 00-.63.115l-1.363 2.022a.485.485 0 00.11.657.44.44 0 00.63-.115l1.363-2.022a.485.485 0 00-.11-.657zM35.606 17.456l-2.15 1.042a.48.48 0 00-.22.627c.106.238.38.337.6.229l2.152-1.042a.48.48 0 00.22-.627.444.444 0 00-.602-.229zM33.846 25.858a.466.466 0 00.411.51l2.363.218a.46.46 0 00.49-.428.466.466 0 00-.41-.512l-2.364-.217a.458.458 0 00-.49.429zM31.14 32.006a.484.484 0 00.111.656l1.942 1.418a.441.441 0 00.63-.116.484.484 0 00-.11-.656L31.77 31.89a.44.44 0 00-.63.116zM18.401 37.732h4.987c1.455 0 2.638-1.227 2.638-2.736 0-.689-.247-1.319-.653-1.8 1.36-.107 2.437-1.29 2.437-2.728 0-.689-.247-1.319-.653-1.8 1.36-.107 2.437-1.29 2.437-2.728 0-.689-.247-1.319-.653-1.8 1.361-.107 2.437-1.29 2.437-2.728 0-1.509-1.183-2.736-2.638-2.736l-8.54.003c1.937-3.104 1.17-6.063 1.091-6.345-.056-.243-.653-2.683-2.25-3.573-1.588-.916-4.047.164-3.563 2.352a5.465 5.465 0 01-1.438 4.912l-3.677 3.732a1.334 1.334 0 00-1.056-.528H4.173c-.748 0-1.357.634-1.357 1.414v15.21c0 .78.609 1.415 1.357 1.415h5.134c.535 0 .997-.326 1.218-.796 2.551.836 5.198 1.26 7.876 1.26zm-3.73-21.03a6.442 6.442 0 001.69-5.793c-.357-1.329 1.413-1.868 2.252-1.318 1.282.714 1.795 2.949 1.8 2.971l.008.032c.038.129.883 3.166-1.407 6.191-.366.289-.07.933.37.838l9.356-.004c.956 0 1.734.804 1.734 1.793 0 .988-.778 1.792-1.734 1.792h-3.7a.462.462 0 00-.453.472c0 .26.202.471.452.471h1.917c.956 0 1.733.805 1.733 1.793 0 .988-.777 1.792-1.733 1.792h-3.701a.462.462 0 00-.452.472c0 .26.202.471.452.471H25.172c.956 0 1.733.805 1.733 1.793 0 .988-.777 1.793-1.733 1.793h-3.701a.462.462 0 00-.452.471c0 .26.202.472.452.472h1.917c.956 0 1.733.804 1.733 1.792s-.777 1.793-1.733 1.793h-4.987c-2.632 0-5.233-.425-7.737-1.26v-14.66a.972.972 0 00.053-.155l3.954-4.013zM9.307 36.324H4.173a.463.463 0 01-.452-.472v-15.21c0-.26.203-.471.452-.471h5.134c.199 0 .366.135.427.322-.025.102.025 15.36.025 15.36 0 .26-.203.47-.452.47z" fill="#000"/><path d="M6.74 34.014c.682 0 1.234-.574 1.234-1.282 0-.708-.552-1.282-1.234-1.282-.681 0-1.234.574-1.234 1.282 0 .708.553 1.282 1.234 1.282zM44.396 21.022l-2.144-1.931c-.535-.472-.751-1.312-.513-2.004l.925-2.778c.542-1.514-.453-3.305-1.98-3.573l-2.817-.564c-.673-.13-1.251-.73-1.376-1.434l-.542-2.92c-.259-1.592-1.978-2.624-3.428-2.062l-2.687.966c-.672.25-1.464.029-1.93-.54l-1.857-2.227c-.988-1.242-2.971-1.242-3.96 0l-1.64 1.967a.368.368 0 00-.013.017c-.47.619-1.469 1.07-2.398.688a.386.386 0 00-.019-.007l-2.403-.864c-1.45-.562-3.17.47-3.428 2.061l-.542 2.922a.429.429 0 00-.005.03c-.083.685-.647 1.261-1.373 1.403l-2.817.565c-1.527.267-2.52 2.058-1.979 3.57l.647 1.94c.064.196.24.318.427.318.05 0 .1-.009.148-.026a.477.477 0 00.28-.6l-.647-1.94c-.354-.99.296-2.161 1.295-2.336l2.815-.564c1.1-.215 1.961-1.116 2.1-2.196l.54-2.906c.169-1.042 1.295-1.717 2.245-1.35l2.393.861c1.328.54 2.751-.097 3.424-.975l1.633-1.96c.648-.813 1.947-.813 2.595 0l1.854 2.223c.7.858 1.9 1.193 2.915.816l2.682-.964c.95-.368 2.075.307 2.245 1.349l.541 2.916C35.795 10 36.66 10.9 37.7 11.1l2.813.564c1 .175 1.651 1.346 1.296 2.337l-.923 2.773c-.365 1.061-.044 2.31.778 3.035l2.14 1.928c.783.671.783 2.025.001 2.697l-2.06 1.855c-.857.77-1.212 2.008-.86 3.103l.925 2.78c.354.99-.296 2.16-1.295 2.335l-3.008.603c-1.05.204-1.82 1.103-1.923 2.242l-.523 2.821c-.17 1.042-1.296 1.717-2.245 1.35l-2.702-.972c-.595-.214-2.064-.131-2.872.794l-.007.008-1.87 2.243c-.648.814-1.947.814-2.595 0l-1.854-2.222c-.7-.858-1.9-1.193-2.915-.816l-2.682.965c-.95.367-2.076-.308-2.245-1.35l-.254-1.366a.454.454 0 00-.53-.373.47.47 0 00-.358.552l.254 1.367c.259 1.59 1.978 2.622 3.428 2.06l2.687-.965c.672-.25 1.464-.029 1.93.54l1.856 2.227c.989 1.242 2.972 1.242 3.96 0l1.867-2.239c.535-.607 1.624-.634 1.905-.534l2.701.972c1.451.562 3.17-.47 3.429-2.061l.528-2.846a.46.46 0 00.006-.05c.06-.734.527-1.291 1.192-1.42l3.01-.604c1.527-.267 2.521-2.058 1.98-3.57l-.924-2.774c-.232-.735.014-1.563.595-2.086l2.06-1.855c1.196-1.028 1.196-3.098 0-4.125z" fill="#000"/></symbol><symbol fill="none" viewBox="0 0 14 15" id="search" xmlns="http://www.w3.org/2000/svg"><path d="M13.498 13.57l-1.91-1.981a6.746 6.746 0 001.345-4.064A6.836 6.836 0 0011.86 3.84a6.431 6.431 0 00-2.857-2.444 6.128 6.128 0 00-3.679-.377 6.291 6.291 0 00-3.26 1.816A6.726 6.726 0 00.323 6.23a6.895 6.895 0 00.363 3.833 6.583 6.583 0 002.344 2.978 6.184 6.184 0 003.537 1.118 6.142 6.142 0 003.9-1.402l1.902 1.99a.795.795 0 00.565.246.768.768 0 00.565-.245.832.832 0 00.235-.59.86.86 0 00-.235-.588zM1.792 7.526c0-.984.28-1.946.804-2.764A4.823 4.823 0 014.74 2.928a4.596 4.596 0 012.759-.283 4.718 4.718 0 012.445 1.361 5.044 5.044 0 011.307 2.548c.184.966.09 1.966-.272 2.875a4.937 4.937 0 01-1.759 2.233 4.638 4.638 0 01-2.653.84 4.68 4.68 0 01-3.376-1.458 5.085 5.085 0 01-1.398-3.519z" fill="#000"/></symbol><symbol fill="none" viewBox="0 0 15 16" id="swimming-pool" xmlns="http://www.w3.org/2000/svg"><g clip-path="url(#uclip0_2_2066)"><path d="M1.03 11.259a2.676 2.676 0 013.78 0 3.843 3.843 0 005.438 0 2.676 2.676 0 013.78 0 .586.586 0 00.829-.829 3.852 3.852 0 00-4.438-.72V2.382a.567.567 0 011.133 0 .586.586 0 101.172 0A1.74 1.74 0 0010.986.645a1.74 1.74 0 00-1.738 1.738v1.719H5.81V2.383a.567.567 0 011.133 0 .586.586 0 001.172 0A1.74 1.74 0 006.377.645a1.74 1.74 0 00-1.739 1.738V9.71a3.852 3.852 0 00-4.437.721.586.586 0 10.829.829zm4.78-.672V8.731h3.438v1.856a2.671 2.671 0 01-3.438 0zm3.438-5.313v2.285H5.81V5.274h3.438zm5.609 8.415a.586.586 0 01-.829.829 2.676 2.676 0 00-3.78 0 3.843 3.843 0 01-5.438 0 2.676 2.676 0 00-3.78 0 .586.586 0 11-.829-.829 3.85 3.85 0 015.438 0 2.672 2.672 0 003.78 0 3.85 3.85 0 015.438 0z" fill="#000"/></g><defs><clipPath id="uclip0_2_2066"><path fill="#fff" transform="translate(0 .645)" d="M0 0h15v15H0z"/></clipPath></defs></symbol><symbol fill="none" viewBox="0 0 21 20" id="telegram" xmlns="http://www.w3.org/2000/svg"><path d="M10.6 20c5.524 0 10-4.476 10-10s-4.476-10-10-10C5.075 0 .6 4.476.6 10s4.475 10 10 10zM5.175 9.783l9.642-3.717c.448-.162.838.109.693.786l.001-.001-1.641 7.734c-.122.548-.448.682-.904.423l-2.5-1.842-1.206 1.162c-.133.133-.245.245-.504.245l.178-2.544 4.633-4.186c.202-.177-.045-.277-.31-.1L7.53 11.346l-2.468-.77c-.536-.17-.547-.535.113-.794z"/></symbol><symbol fill="none" viewBox="0 0 45 45" id="warehouse" xmlns="http://www.w3.org/2000/svg"><path d="M40.313 38.906V16.194L22.5 4.776 4.687 16.194v24.119h5.625V23.905a.469.469 0 01.47-.468h21.093a.47.47 0 010 .937H11.25v15.938h4.219v-4.688a.469.469 0 01.469-.469h2.812V30.47a.469.469 0 01.469-.469h6.562a.469.469 0 01.469.469v3.281a.469.469 0 01-.938 0v-2.813h-5.625v4.22H22.5a.47.47 0 01.469.468v3.281a.469.469 0 01-.938 0v-2.812h-5.625v4.218h12.188v-4.218h-4.219a.47.47 0 010-.938h4.688a.47.47 0 01.468.469v4.688h4.219V23.905a.469.469 0 01.938 0v16.407h6.093a.468.468 0 110 .937H4.22a.469.469 0 01-.469-.469V15.938a.469.469 0 01.216-.395l18.28-11.719a.469.469 0 01.507 0l18.281 11.719a.468.468 0 01.216.395v22.968a.469.469 0 01-.938 0zM26.25 14.063h-7.5a.47.47 0 000 .937h7.5a.47.47 0 000-.938zm0 1.874h-7.5a.47.47 0 000 .938h7.5a.47.47 0 000-.938zm0 1.876h-7.5a.47.47 0 000 .937h7.5a.47.47 0 000-.938z" fill="#000"/></symbol><symbol fill="none" viewBox="0 0 20 20" id="whatsapp" xmlns="http://www.w3.org/2000/svg"><path d="M9.6.4A9.597 9.597 0 000 10c0 2.112.672 4.056 1.824 5.64l-1.32 3.48 3.816-1.104A9.498 9.498 0 009.6 19.6c5.304 0 9.6-4.296 9.6-9.6 0-5.304-4.296-9.6-9.6-9.6zm5.112 13.584l-1.032 1.008c-1.08 1.08-3.936-.096-6.456-2.64-2.52-2.52-3.648-5.376-2.64-6.432l1.032-1.032c.384-.384 1.032-.384 1.44 0L8.568 6.4c.528.528.312 1.44-.384 1.656-.48.168-.816.696-.648 1.176.264 1.128 1.728 2.52 2.808 2.784.48.12 1.032-.168 1.176-.648.216-.696 1.128-.912 1.656-.384l1.512 1.512c.384.408.384 1.056.024 1.488z"/></symbol></svg>